C:\Users\israe\Dropbox\PhDWork\ExperimentalData/subject1/100/P1S100W01_EMG(MVC)_40ms.mot
nRows=29
nColumns=16

name C:\Users\israe\Dropbox\PhDWork\ExperimentalData/subject1/100/P1S100W01_EMG(MVC)_40ms.mot
datacolumns 16
datarows 29
range 1.2700000000 1.2980000000
endheader
time	BF	ST	VL	VM	RF	TFL	GE	GA	TA	GL	GM	SO	ES	MF	VI_a
        1.2700000000	        0.0764779867	        0.0407634821	        0.0074864072	        0.0216750165	        0.0363334722	        0.0330685412	        0.0675126705	        0.0200547107	        0.0425647298	        0.0326325669	        0.0167129659	        0.0178093937	        0.8645975365	        0.9007705104	        0.0145807119	
        1.2710000000	        0.0764526895	        0.0407495244	        0.0075139741	        0.0216391433	        0.0372220863	        0.0332792660	        0.0675493945	        0.0201060193	        0.0431981480	        0.0327751571	        0.0169941377	        0.0179073337	        0.8649873237	        0.9010024497	        0.0145765587	
        1.2720000000	        0.0764178990	        0.0407336631	        0.0075420868	        0.0216031818	        0.0381209102	        0.0334929684	        0.0675893239	        0.0201742382	        0.0438341924	        0.0329154847	        0.0172754291	        0.0180120894	        0.8653754197	        0.9012334606	        0.0145726343	
        1.2730000000	        0.0763738375	        0.0407156914	        0.0075706712	        0.0215672246	        0.0390286786	        0.0337094105	        0.0676319716	        0.0202598900	        0.0444714818	        0.0330530306	        0.0175560605	        0.0181231567	        0.8657622699	        0.9014629838	        0.0145689479	
        1.2740000000	        0.0763205745	        0.0406953580	        0.0075996344	        0.0215313861	        0.0399440459	        0.0339283349	        0.0676768056	        0.0203635204	        0.0451086582	        0.0331871891	        0.0178353351	        0.0182400731	        0.8661478009	        0.9016904628	        0.0145655102	
        1.2750000000	        0.0762580595	        0.0406723749	        0.0076288835	        0.0214957611	        0.0408656051	        0.0341494618	        0.0677232896	        0.0204857449	        0.0457444078	        0.0333172569	        0.0181126774	        0.0183624280	        0.8665312193	        0.9019156734	        0.0145623223	
        1.2760000000	        0.0761862217	        0.0406464188	        0.0076583391	        0.0214603992	        0.0417918843	        0.0343724931	        0.0677708783	        0.0206272692	        0.0463774878	        0.0334424853	        0.0183876123	        0.0184898269	        0.8669115310	        0.9021387712	        0.0145593692	
        1.2770000000	        0.0761050374	        0.0406171492	        0.0076879315	        0.0214253034	        0.0427213078	        0.0345970675	        0.0678190115	        0.0207888655	        0.0470067436	        0.0335621401	        0.0186597057	        0.0186218453	        0.8672881242	        0.9023601994	        0.0145566175	
        1.2780000000	        0.0760145049	        0.0405842799	        0.0077175894	        0.0213904414	        0.0436521649	        0.0348227174	        0.0678671588	        0.0209713200	        0.0476310844	        0.0336755270	        0.0189285140	        0.0187580091	        0.8676608969	        0.9025805617	        0.0145540154	
        1.2790000000	        0.0759146096	        0.0405476495	        0.0077472372	        0.0213557717	        0.0445825965	        0.0350488789	        0.0679149146	        0.0211753819	        0.0482494181	        0.0337820229	        0.0191935582	        0.0188978136	        0.8680301718	        0.9028004860	        0.0145515044	
        1.2800000000	        0.0758053598	        0.0405072211	        0.0077768028	        0.0213212642	        0.0455106117	        0.0352749453	        0.0679620856	        0.0214017350	        0.0488606057	        0.0338810839	        0.0194543271	        0.0190407585	        0.8683965916	        0.9030205045	        0.0145490335	
        1.2810000000	        0.0756868318	        0.0404630066	        0.0078062196	        0.0212869122	        0.0464341471	        0.0355003057	        0.0680086882	        0.0216509947	        0.0494635089	        0.0339721862	        0.0197103036	        0.0191863588	        0.8687610028	        0.9032409023	        0.0145465659	
        1.2820000000	        0.0755591514	        0.0404149977	        0.0078354159	        0.0212527510	        0.0473511367	        0.0357243305	        0.0680548424	        0.0219237284	        0.0500570858	        0.0340548065	        0.0199609989	        0.0193341277	        0.8691243492	        0.9034615310	        0.0145440835	
        1.2830000000	        0.0754224477	        0.0403631782	        0.0078643100	        0.0212188612	        0.0482595528	        0.0359463538	        0.0681006771	        0.0222204761	        0.0506404473	        0.0341284780	        0.0202059890	        0.0194835807	        0.8694874271	        0.9036818400	        0.0145415856	
        1.2840000000	        0.0752768573	        0.0403075734	        0.0078928304	        0.0211853397	        0.0491574061	        0.0361657251	        0.0681463511	        0.0225417427	        0.0512128304	        0.0341928366	        0.0204449343	        0.0196342741	        0.8698503885	        0.9039012130	        0.0145390850	
        1.2850000000	        0.0751225786	        0.0402482629	        0.0079209413	        0.0211522738	        0.0500427128	        0.0363818875	        0.0681921027	        0.0228879752	        0.0517734848	        0.0342476536	        0.0206775568	        0.0197858159	        0.8702125433	        0.9041192371	        0.0145366076	
        1.2860000000	        0.0749598594	        0.0401853588	        0.0079486483	        0.0211197326	        0.0509134414	        0.0365943841	        0.0682382119	        0.0232595576	        0.0523215582	        0.0342928566	        0.0209035906	        0.0199378192	        0.8705728678	        0.9043357242	        0.0145341905	
        1.2870000000	        0.0747889067	        0.0401190040	        0.0079759875	        0.0210877606	        0.0517674710	        0.0368027996	        0.0682849048	        0.0236568356	        0.0528560487	        0.0343285145	        0.0211227404	        0.0200898656	        0.8709305747	        0.9045506562	        0.0145318741	
        1.2880000000	        0.0746099347	        0.0400494163	        0.0080030110	        0.0210563780	        0.0526026181	        0.0370067131	        0.0683322820	        0.0240801508	        0.0533757957	        0.0343547955	        0.0213346802	        0.0202415285	        0.8712852499	        0.9047641431	        0.0145296945	
        1.2890000000	        0.0744233622	        0.0399769128	        0.0080297775	        0.0210255938	        0.0534167168	        0.0372056746	        0.0683803023	        0.0245298488	        0.0538794924	        0.0343718990	        0.0215391007	        0.0203924095	        0.8716368034	        0.9049763745	        0.0145276857	
        1.2900000000	        0.0742298736	        0.0399018531	        0.0080563536	        0.0209954171	        0.0542076682	        0.0373992182	        0.0684288035	        0.0250062677	        0.0543657002	        0.0343799857	        0.0217357529	        0.0205421244	        0.8719854238	        0.9051875673	        0.0145258853	
        1.2910000000	        0.0740302976	        0.0398245461	        0.0080828098	        0.0209658580	        0.0549734316	        0.0375869471	        0.0684775371	        0.0255097314	        0.0548328299	        0.0343791554	        0.0219244537	        0.0206902587	        0.8723315213	        0.9053978544	        0.0145243339	
        1.2920000000	        0.0738255519	        0.0397452278	        0.0081092107	        0.0209369237	        0.0557119857	        0.0377686645	        0.0685262242	        0.0260405483	        0.0552791121	        0.0343694850	        0.0221050755	        0.0208363488	        0.8726756666	        0.9056070784	        0.0145230672	
        1.2930000000	        0.0736166971	        0.0396641213	        0.0081356086	        0.0209086256	        0.0564212983	        0.0379444792	        0.0685746230	        0.0265990003	        0.0557026177	        0.0343510804	        0.0222775306	        0.0209799055	        0.8730183927	        0.9058147697	        0.0145221171	
        1.2940000000	        0.0734049070	        0.0395814897	        0.0081620434	        0.0208809851	        0.0570993468	        0.0381148168	        0.0686225316	        0.0271853325	        0.0561013730	        0.0343240895	        0.0224417595	        0.0211204568	        0.8733597438	        0.9060204734	        0.0145215142	
        1.2950000000	        0.0731913475	        0.0394976279	        0.0081885449	        0.0208540190	        0.0577441973	        0.0382803049	        0.0686697454	        0.0277997549	        0.0564735406	        0.0342886754	        0.0225977329	        0.0212575933	        0.8736990921	        0.9062240557	        0.0145212819	
        1.2960000000	        0.0729771306	        0.0394128574	        0.0082151363	        0.0208277120	        0.0583540996	        0.0384416194	        0.0687160734	        0.0284424653	        0.0568175567	        0.0342449912	        0.0227454464	        0.0213910033	        0.8740356251	        0.9064257379	        0.0145214242	
        1.2970000000	        0.0727633184	        0.0393275636	        0.0082418385	        0.0208019983	        0.0589275740	        0.0385993960	        0.0687613713	        0.0291136906	        0.0571321573	        0.0341931984	        0.0228849185	        0.0215204962	        0.8743688841	        0.9066259941	        0.0145219184	
        1.2980000000	        0.0725508735	        0.0392421956	        0.0082686666	        0.0207767478	        0.0594635007	        0.0387542135	        0.0688054931	        0.0298137029	        0.0574162797	        0.0341335121	        0.0230162048	        0.0216460029	        0.8746988712	        0.9068254182	        0.0145227072	
